<svg width="335" height="378" viewBox="0 0 335 378" fill="none" xmlns="http://www.w3.org/2000/svg">
<path d="M21.7091 0.00165049C21.7091 0.00165049 -13.0436 -1.70494 5.39214 104.635C5.39214 104.635 17.7948 140.732 2.13779 163.997H232.612V0.00165049H21.7091Z" fill="#AFCDFB"/>
<path d="M45.3805 276.474C45.3805 276.474 29.2792 257.614 44.3878 245.635C44.3878 245.635 55.4234 238.927 64.4222 239.472C64.4222 239.472 51.6718 260.938 55.7968 263.074C59.9216 265.208 68.287 238.125 68.287 238.125C68.287 238.125 93.4005 235.68 101.48 239.58C101.48 239.58 80.0107 257.218 84.5321 258.269C89.0538 259.319 112.243 242.005 112.243 242.005C112.243 242.005 135.617 245.999 134.371 260.315C133.125 274.63 125.071 279.051 121.531 278.67C117.991 278.29 97.2846 270.353 96.8332 273.265C96.3821 276.177 108.846 285.694 117.575 286.139C117.575 286.139 101.096 304.385 90.1437 299.119C79.1913 293.853 78.2567 285.506 71.4297 282.375C64.6029 279.245 58.7747 279.253 61.5935 282.446C64.4124 285.639 76.7676 288.742 80.6719 295.676C84.5767 302.609 88.0794 307.285 76.7484 305.573C65.4167 303.862 46.9984 295.537 46.1895 286.005C45.3805 276.473 45.3805 276.474 45.3805 276.474Z" fill="#599DAD"/>
<path d="M251.784 69.5705C251.784 69.5705 236.277 76.4392 231.401 93.8677L233.766 94.6298C233.766 94.6298 242.098 77.3517 251.371 71.9535C260.643 66.5552 251.784 69.5705 251.784 69.5705Z" fill="#599DAD"/>
<path d="M183.705 48.6395C183.705 48.6395 169.792 71.2921 178.902 98.0887L182.621 96.9658C182.621 96.9658 178.098 67.2863 185.278 52.0769C192.458 36.8668 183.705 48.6395 183.705 48.6395Z" fill="#6BB7BF"/>
<path d="M276.945 62.9443H36.3232V378H276.945V62.9443Z" fill="#9ABCEF"/>
<path d="M280.768 62.9443H44.1904V378H280.768V62.9443Z" fill="#E9F3FE"/>
<path d="M280.769 62.9395C280.766 62.9428 280.766 62.9428 280.766 62.9428H44.1885C45.4971 44.9816 43.5257 31.9384 40.3662 22.5596C34.2991 4.525 23.8428 0 23.8428 0H246.958C266.001 0 280.767 11.5181 284.786 26.8061C284.935 27.3815 285.075 27.9539 285.197 28.5265C289.012 46.0179 280.926 62.6198 280.769 62.9395Z" fill="#E9F3FE"/>
<path d="M280.771 62.9397C280.768 62.9431 280.768 62.9431 280.768 62.9431H44.1904C45.4991 44.9819 43.5277 31.9387 40.3682 22.5598C64.5453 27.0044 124.426 36.476 188.52 34.8805C229.984 33.8476 262.751 31.0627 285.198 28.5267C289.014 46.0182 280.928 62.6201 280.771 62.9397Z" fill="#D8E8FD"/>
<path d="M218.273 135.592H92.8124C91.5243 135.592 90.4707 134.534 90.4707 133.241V132.035C90.4707 130.742 91.5243 129.684 92.8124 129.684H218.273C219.561 129.684 220.615 130.742 220.615 132.035V133.241C220.615 134.534 219.561 135.592 218.273 135.592Z" fill="#BBD5FC"/>
<path d="M169.715 145.533H92.3194C91.3028 145.533 90.4707 144.698 90.4707 143.677V141.481C90.4707 140.46 91.3028 139.625 92.3194 139.625H169.715C170.731 139.625 171.564 140.46 171.564 141.481V143.677C171.564 144.698 170.731 145.533 169.715 145.533Z" fill="#BBD5FC"/>
<path d="M78.3882 144.576V132.508H76.8015C75.8394 132.508 75.3587 132.106 75.3587 131.301C75.3587 130.721 75.7351 130.311 76.489 130.07C76.8734 129.941 77.4866 129.844 78.328 129.78C79.1693 129.716 79.8464 129.684 80.3596 129.684C80.8563 129.684 81.1688 129.784 81.2973 129.985C81.4251 130.187 81.4897 130.697 81.4897 131.518V144.576H83.1246C84.1825 144.576 84.7113 145.034 84.7113 145.952C84.7113 146.917 84.1825 147.4 83.1246 147.4H76.537C76.0721 147.4 75.6837 147.276 75.3712 147.026C75.0589 146.777 74.9023 146.427 74.9023 145.976C74.9023 145.043 75.4394 144.576 76.5131 144.576L78.3882 144.576Z" fill="#BBD5FC"/>
<path d="M218.273 197.815H92.8124C91.5243 197.815 90.4707 196.757 90.4707 195.464V194.258C90.4707 192.965 91.5243 191.906 92.8124 191.906H218.273C219.561 191.906 220.615 192.965 220.615 194.258V195.464C220.615 196.757 219.561 197.815 218.273 197.815Z" fill="#D2E4FD"/>
<path d="M169.715 207.755H92.3194C91.3028 207.755 90.4707 206.921 90.4707 205.9V203.703C90.4707 202.683 91.3028 201.847 92.3194 201.847H169.715C170.731 201.847 171.564 202.683 171.564 203.703V205.9C171.564 206.921 170.731 207.755 169.715 207.755Z" fill="#D2E4FD"/>
<path d="M84.9578 206.55C84.9578 207.354 84.3978 207.756 83.2794 207.756H76.3104C75.3048 207.756 74.8018 207.351 74.8018 206.54C74.8018 206.284 74.9363 205.986 75.2058 205.644C75.6018 205.189 76.1826 204.507 76.9475 203.596C78.1087 202.131 79.0794 200.866 79.8587 199.799C80.1275 199.444 80.5098 198.904 81.0058 198.178C81.4166 197.453 81.6221 196.842 81.6221 196.344C81.6221 195.789 81.4447 195.331 81.0908 194.968C80.737 194.605 80.2835 194.424 79.7314 194.424C79.1929 194.424 78.7256 194.595 78.3289 194.936C78.0598 195.164 77.8472 195.59 77.6915 196.216C77.4934 197.026 77.3658 197.496 77.309 197.624C77.0967 198.079 76.7496 198.307 76.2682 198.307C75.8434 198.307 75.5104 198.15 75.2694 197.837C75.0428 197.567 74.9296 197.212 74.9296 196.771C74.9296 196.273 75.0073 195.768 75.1636 195.256C75.5033 194.161 76.1052 193.322 76.9692 192.739C77.7907 192.184 78.7889 191.907 79.9651 191.907C81.2539 191.907 82.3301 192.299 83.1947 193.082C84.0871 193.908 84.5333 194.962 84.5333 196.244C84.5333 197.199 84.2146 198.182 83.577 199.193C83.2228 199.748 82.4937 200.731 81.3887 202.141C80.822 202.868 79.9296 203.922 78.7118 205.303H83.3011C84.4052 205.303 84.9578 205.718 84.9578 206.55Z" fill="#D2E4FD"/>
<path d="M218.27 249.72H92.8095C91.5214 249.72 90.4678 248.662 90.4678 247.369V246.163C90.4678 244.87 91.5214 243.812 92.8095 243.812H218.27C219.558 243.812 220.612 244.87 220.612 246.163V247.369C220.612 248.662 219.558 249.72 218.27 249.72Z" fill="#D2E4FD"/>
<path d="M169.712 259.661H92.3165C91.2999 259.661 90.4678 258.825 90.4678 257.805V255.608C90.4678 254.588 91.2999 253.752 92.3165 253.752H169.712C170.728 253.752 171.561 254.588 171.561 255.608V257.805C171.561 258.826 170.728 259.661 169.712 259.661Z" fill="#D2E4FD"/>
<path d="M84.9568 254.711C84.9568 256.223 84.428 257.437 83.3713 258.353C82.3722 259.225 81.1051 259.661 79.5705 259.661C78.3829 259.661 77.3697 259.377 76.5302 258.811C75.198 257.909 74.5322 256.826 74.5322 255.562C74.5322 255.198 74.6481 254.886 74.8799 254.624C75.1115 254.362 75.4081 254.231 75.7702 254.231C76.1464 254.231 76.5012 254.486 76.8342 254.995C77.3697 255.838 77.6817 256.303 77.7682 256.39C78.2459 256.899 78.8612 257.153 79.6142 257.153C80.6274 257.153 81.3516 256.775 81.7859 256.019C81.9883 255.642 82.0899 255.162 82.0899 254.58C82.0899 253.156 81.2571 252.364 79.5922 252.204C78.6511 252.117 78.1808 251.717 78.1808 251.004C78.1808 250.481 78.4542 250.111 79.0007 249.893C80.0216 249.515 80.5394 249.318 80.5534 249.304C81.0996 248.94 81.3737 248.308 81.3737 247.407C81.3737 246.869 81.2146 246.444 80.8975 246.132C80.5797 245.819 80.154 245.663 79.6203 245.663C78.9564 245.663 78.4374 245.823 78.0621 246.142C77.7447 246.419 77.4774 246.891 77.2611 247.56C77.0877 248.069 76.7562 248.323 76.2657 248.323C75.9192 248.323 75.6341 248.17 75.4106 247.865C75.1873 247.56 75.0747 247.226 75.0747 246.862C75.0747 246.411 75.1977 245.961 75.4442 245.51C75.8494 244.755 76.4718 244.166 77.3119 243.744C78.0792 243.351 78.919 243.155 79.831 243.155C81.0611 243.155 82.0856 243.53 82.904 244.278C83.7218 245.027 84.1313 246.012 84.1313 247.233C84.1313 248.701 83.5233 249.863 82.3071 250.721C84.0732 251.433 84.9568 252.763 84.9568 254.711Z" fill="#D2E4FD"/>
<path d="M203.659 83.8697H125.502C124.165 83.8697 123.07 82.7707 123.07 81.4271V79.4481C123.07 78.1054 124.165 77.0059 125.502 77.0059H203.659C204.997 77.0059 206.091 78.1054 206.091 79.4481V81.4271C206.092 82.7707 204.997 83.8697 203.659 83.8697Z" fill="#BBD5FC"/>
<path d="M224.041 94.4525H105.124C103.483 94.4525 102.141 93.1045 102.141 91.4572V90.5843C102.141 88.9366 103.483 87.5884 105.124 87.5884H224.041C225.682 87.5884 227.024 88.9366 227.024 90.5843V91.4572C227.024 93.1048 225.682 94.4525 224.041 94.4525Z" fill="#BBD5FC"/>
<path d="M155.414 167.451C129.642 167.451 105.185 164.204 86.953 159.563C68.5331 154.874 58.6113 147.211 58.6113 140.414C58.6113 134.254 66.6972 128.588 81.9951 124.029C67.3345 128.398 59.4942 134.814 59.4942 140.414C59.4942 146.629 69.657 152.781 87.3771 157.292C105.545 161.916 129.707 164.463 155.414 164.463C181.12 164.463 205.283 161.916 223.45 157.292C241.17 152.781 251.333 146.629 251.333 140.414C251.333 133.833 240.632 125.653 223.405 119.067C203.817 111.579 179.671 108.801 155.414 108.801C109.875 108.801 91.1282 114.138 74.8635 120.826C91.1988 114.109 109.713 106.496 155.414 106.496C179.768 106.496 204.019 110.639 223.698 118.162C241.289 124.887 252.216 133.413 252.216 140.414C252.216 147.211 242.072 153.537 223.652 158.226C205.42 162.866 181.186 167.451 155.414 167.451Z" fill="#C65447"/>
<path d="M311.915 228.109C311.915 228.109 311.066 236.392 310.135 237.959C309.204 239.526 305.239 244.533 303.551 245.515C301.862 246.497 304.582 238.918 304.238 237.443C303.894 235.968 302.848 240.135 302.104 240.233C301.36 240.331 301.551 236.58 301.524 235.216C301.497 233.851 305.146 230.482 306.432 227.576C307.718 224.671 311.915 228.109 311.915 228.109Z" fill="#FFB27D"/>
<path d="M210.551 151.71L208.655 148.119C208.655 148.119 209.596 141.718 201.608 137.669C201.608 137.669 198.689 136.476 197.04 138.866C195.522 141.068 199.933 140.67 199.697 144.437C199.46 148.204 201.241 150.415 203.72 151.642L205.769 154.025L210.551 151.71Z" fill="#FFB27D"/>
<path d="M286.046 143.123C286.046 143.123 279.186 176.927 241.435 187.972C229.651 191.42 202.879 152.469 202.879 152.469C202.879 152.469 203.82 148.878 209.717 149.703C209.717 149.703 235.784 167.029 239.066 168.911C241.978 170.581 261.128 147.442 269.858 143.71C278.587 139.977 286.046 143.123 286.046 143.123Z" fill="#E58638"/>
<path d="M185.583 136.478L184.513 143.475L219.569 148.88L220.64 141.883L185.583 136.478Z" fill="#C65447"/>
<path d="M176.905 138.717L184.52 143.472L185.591 136.475L176.905 138.717Z" fill="#FFB27D"/>
<path d="M224.366 144.831L224.028 147.043C223.819 148.404 222.552 149.337 221.197 149.128L219.575 148.879L220.646 141.882L222.409 142.154C223.686 142.35 224.562 143.549 224.366 144.831Z" fill="#FFB27D"/>
<path d="M331.112 355.628C331.112 355.628 335.795 359.919 334.881 362.967C333.968 366.016 329.741 368.049 329.17 371.775C328.599 375.502 326.315 377.534 324.258 377.534C322.202 377.534 314.456 377.534 314.456 377.534C314.456 377.534 312.943 374.912 316.598 374.122C320.253 373.331 321.631 368.952 321.403 364.887C321.174 360.822 321.745 355.402 321.745 355.402L329.513 353.595L331.112 355.628Z" fill="#233862"/>
<path d="M273.656 366.726C273.656 366.726 274.496 376.492 272.44 377.508L246.128 377.453C246.128 377.453 246.128 374.404 250.354 373.727C254.58 373.049 262.005 370.565 263.261 365.032C264.518 359.499 273.656 366.726 273.656 366.726Z" fill="#233862"/>
<path d="M251.44 228.782C251.44 228.782 252.828 245.899 254.459 266.476C256.676 294.426 259.343 328.76 259.606 335.264C260.062 346.558 261.892 364.625 261.892 364.625C261.892 364.625 266.231 368.917 274.914 367.108C274.914 367.108 282.651 341.318 284.861 314.031C284.896 313.584 284.93 313.133 284.964 312.682C287.02 284.904 290.218 226.41 290.218 226.41L251.44 228.782Z" fill="#2B478B"/>
<path d="M251.44 228.782C251.44 228.782 252.828 245.899 254.459 266.476L284.861 314.031C284.896 313.584 284.93 313.133 284.964 312.682C287.02 284.904 290.218 226.41 290.218 226.41L251.44 228.782Z" fill="#233862"/>
<path d="M257.778 230.814C257.778 230.814 282.794 292.807 299.242 321.941C315.69 351.074 320.831 359.204 320.831 359.204C320.831 359.204 330.254 355.478 331.11 352.937C331.11 352.937 324.821 296.694 313.805 282.983C307.581 275.236 300.27 251.987 299.927 243.856C299.584 235.726 297.7 219.635 297.7 219.635L257.778 230.814Z" fill="#2B478B"/>
<path d="M290.696 135.278C290.696 135.278 273.771 143.477 264.013 140.434C264.013 140.434 266.415 137.393 270.618 135.129C270.28 133.163 270.018 131.456 269.867 130.009C269.455 126.67 269.455 124.778 269.455 124.778L275.984 119.621L282.177 114.687C281.689 128.562 290.696 135.278 290.696 135.278Z" fill="#FFB27D"/>
<path d="M299.616 222.811C299.653 223.849 297.439 225.036 296.463 225.482C289.22 228.673 282.465 230.898 274.809 231.641C265.764 232.568 255.068 230.527 251.391 230.601C251.015 230.601 250.678 230.454 250.378 230.194C250.115 230.008 249.927 219.063 250.115 205.3C250.115 204.743 250.115 204.186 250.153 203.63V203.444C250.228 198.065 250.415 192.426 250.678 186.786C251.204 174.394 252.179 162.448 253.83 155.844C255.82 148.053 260.323 142.896 264.413 139.149L267.791 136.181C271.169 136.849 274.734 136.663 278.299 134.92C282.202 133.028 286.405 130.987 287.081 131.506C292.185 135.253 295.638 143.675 297.476 154.435C298.528 160.631 299.053 167.568 299.015 174.84C299.015 177.511 298.94 180.257 298.79 182.965C297.89 197.657 298.79 210.419 299.316 217.802C299.466 219.954 299.578 221.623 299.616 222.811Z" fill="#EE9849"/>
<path d="M299.315 222.135C240.046 222.016 288.384 157.565 288.384 157.565L297.986 154.434C298.745 161.054 299.125 168.466 299.098 176.235C299.098 179.089 299.044 182.022 298.935 184.915C298.285 200.612 298.935 214.247 299.315 222.135Z" fill="#E58638"/>
<path d="M282.287 119.992C282.287 119.992 278.009 127.82 269.865 130.009C269.452 126.67 269.452 124.778 269.452 124.778L275.982 119.621L282.287 119.992Z" fill="#ED985F"/>
<path d="M266.475 124.552C266.475 124.552 282.621 127.204 284.137 117.238C285.653 107.273 288.757 100.903 278.512 98.7887C268.267 96.6741 265.681 100.178 264.357 103.383C263.033 106.588 262.314 123.606 266.475 124.552Z" fill="#FFB27D"/>
<path d="M290.005 97.595C290.152 97.4265 290.49 97.2904 291.242 97.249C291.242 97.249 290.641 96.8713 289.837 96.8514C289.679 95.8012 289.123 93.9417 287.322 93.4901C287.322 93.4901 288.29 94.0084 288.416 95.1248C286.33 92.9742 281.862 91.4089 269.487 92.3899C253.179 93.682 258.554 104.165 260.665 105.415C262.776 106.664 268.091 103.239 272.024 103.552C275.958 103.866 276.706 109.572 278.041 110.355C279.375 111.138 278.85 109.754 280.656 108.934C282.461 108.115 282.633 111.119 282.112 113.072C281.59 115.025 284.071 117.601 284.071 117.601C284.071 117.601 284.071 117.601 286.578 114.89C289.085 112.18 291.448 100.698 290.308 98.2506C290.207 98.0341 290.108 97.8152 290.005 97.595Z" fill="#2C3A64"/>
<path d="M287.073 131.423C287.073 131.423 297.289 136.28 302.187 143.747C309.785 155.329 318.593 197.54 318.755 201.45C318.918 205.358 312.327 232.954 312.327 232.954C312.327 232.954 305.642 232.512 303.918 229.125C303.918 229.125 305.253 200.77 304.407 198.948C303.561 197.125 276.54 160.914 279.578 153.186C282.616 145.459 287.073 131.423 287.073 131.423Z" fill="#EE9849"/>
<path d="M208.622 147.948C208.622 147.948 209.177 145.745 207.655 144.754C206.132 143.764 204.732 141.071 204.091 141.436C202.761 142.192 204.819 144.542 204.442 147.473C204.31 148.499 206.69 151.189 208.622 147.948Z" fill="#FFB27D"/>
<path d="M227.126 309.484H81.65C80.6763 309.484 79.8799 308.684 79.8799 307.706C79.8799 306.729 80.6763 305.929 81.65 305.929H227.126C228.1 305.929 228.896 306.729 228.896 307.706C228.896 308.684 228.099 309.484 227.126 309.484Z" fill="#D2E4FD"/>
<path d="M227.126 316.598H81.65C80.6763 316.598 79.8799 315.798 79.8799 314.821C79.8799 313.843 80.6763 313.043 81.65 313.043H227.126C228.1 313.043 228.896 313.843 228.896 314.821C228.896 315.798 228.099 316.598 227.126 316.598Z" fill="#D2E4FD"/>
<path d="M227.126 324.482H81.65C80.6763 324.482 79.8799 323.682 79.8799 322.705C79.8799 321.727 80.6763 320.927 81.65 320.927H227.126C228.1 320.927 228.896 321.727 228.896 322.705C228.896 323.682 228.099 324.482 227.126 324.482Z" fill="#D2E4FD"/>
<path d="M208.028 332.366H81.532C80.623 332.366 79.8799 331.619 79.8799 330.707V330.471C79.8799 329.558 80.6234 328.812 81.532 328.812H208.028C208.936 328.812 209.68 329.558 209.68 330.471V330.707C209.68 331.62 208.936 332.366 208.028 332.366Z" fill="#D2E4FD"/>
</svg>
